HIERARCHY
ROOT Hips
{
	OFFSET 0.000000 0.000000 0.000000
	CHANNELS 6 Xposition Yposition Zposition Zrotation Yrotation Xrotation 
	JOINT LHipJoint
	{
		OFFSET 0.000000 0.000000 0.000000
		CHANNELS 3 Zrotation Yrotation Xrotation
		JOINT LeftUpLeg
		{
			OFFSET 1.363060 -1.794630 0.839290
			CHANNELS 3 Zrotation Yrotation Xrotation
			JOINT LeftLeg
			{
				OFFSET 2.448110 -6.726130 0.000000
				CHANNELS 3 Zrotation Yrotation Xrotation
				JOINT LeftFoot
				{
					OFFSET 2.562200 -7.039590 0.000000
					CHANNELS 3 Zrotation Yrotation Xrotation
					JOINT LeftToeBase
					{
						OFFSET 0.157640 -0.433110 2.322550
						CHANNELS 3 Zrotation Yrotation Xrotation
						End Site
						{
							OFFSET 0.000000 0.000000 0.000000
						}
					}
				}
			}
		}
	}
	JOINT RHipJoint
	{
		OFFSET 0.000000 0.000000 0.000000
		CHANNELS 3 Zrotation Yrotation Xrotation
		JOINT RightUpLeg
		{
			OFFSET -1.305520 -1.794630 0.839290
			CHANNELS 3 Zrotation Yrotation Xrotation
			JOINT RightLeg
			{
				OFFSET -2.542530 -6.985550 0.000000
				CHANNELS 3 Zrotation Yrotation Xrotation
				JOINT RightFoot
				{
					OFFSET -2.568260 -7.056230 0.000000
					CHANNELS 3 Zrotation Yrotation Xrotation
					JOINT RightToeBase
					{
						OFFSET -0.164730 -0.452590 2.363150
						CHANNELS 3 Zrotation Yrotation Xrotation
						End Site
						{
							OFFSET 0.000000 0.000000 0.000000
						}
					}
				}
			}
		}
	}
	JOINT LowerBack
	{
		OFFSET 0.000000 0.000000 0.000000
		CHANNELS 3 Zrotation Yrotation Xrotation
		JOINT Spine
		{
			OFFSET 0.028270 2.035590 -0.193380
			CHANNELS 3 Zrotation Yrotation Xrotation
			JOINT Spine1
			{
				OFFSET 0.056720 2.048850 -0.042750
				CHANNELS 3 Zrotation Yrotation Xrotation
				JOINT Neck
				{
					OFFSET 0.000000 0.000000 0.000000
					CHANNELS 3 Zrotation Yrotation Xrotation
					JOINT Neck1
					{
						OFFSET -0.054170 1.746240 0.172020
						CHANNELS 3 Zrotation Yrotation Xrotation
						JOINT Head
						{
							OFFSET 0.104070 1.761360 -0.123970
							CHANNELS 3 Zrotation Yrotation Xrotation
							End Site
							{
								OFFSET 0.000000 0.000000 0.000000
							}
						}
					}
				}
				JOINT LeftShoulder
				{
					OFFSET 0.000000 0.000000 0.000000
					CHANNELS 3 Zrotation Yrotation Xrotation
					JOINT LeftArm
					{
						OFFSET 3.362410 1.200890 -0.311210
						CHANNELS 3 Zrotation Yrotation Xrotation
						JOINT LeftForeArm
						{
							OFFSET 4.983000 -0.000000 -0.000000
							CHANNELS 3 Zrotation Yrotation Xrotation
							JOINT LeftHand
							{
								OFFSET 3.483560 -0.000000 -0.000000
								CHANNELS 3 Zrotation Yrotation Xrotation
								JOINT LeftFingerBase
								{
									OFFSET 0.000000 0.000000 0.000000
									CHANNELS 3 Zrotation Yrotation Xrotation
									JOINT LeftHandIndex1
									{
										OFFSET 0.715260 -0.000000 -0.000000
										CHANNELS 3 Zrotation Yrotation Xrotation
										End Site
										{
											OFFSET 0.000000 0.000000 0.000000
										}
									}
								}
								JOINT LThumb
								{
									OFFSET 0.000000 0.000000 0.000000
									CHANNELS 3 Zrotation Yrotation Xrotation
									End Site
									{
										OFFSET 0.000000 0.000000 0.000000
									}
								}
							}
						}
					}
				}
				JOINT RightShoulder
				{
					OFFSET 0.000000 0.000000 0.000000
					CHANNELS 3 Zrotation Yrotation Xrotation
					JOINT RightArm
					{
						OFFSET -3.136600 1.374050 -0.404650
						CHANNELS 3 Zrotation Yrotation Xrotation
						JOINT RightForeArm
						{
							OFFSET -5.241900 -0.000000 -0.000000
							CHANNELS 3 Zrotation Yrotation Xrotation
							JOINT RightHand
							{
								OFFSET -3.444170 -0.000000 -0.000000
								CHANNELS 3 Zrotation Yrotation Xrotation
								JOINT RightFingerBase
								{
									OFFSET 0.000000 0.000000 0.000000
									CHANNELS 3 Zrotation Yrotation Xrotation
									JOINT RightHandIndex1
									{
										OFFSET -0.622530 -0.000000 -0.000000
										CHANNELS 3 Zrotation Yrotation Xrotation
										End Site
										{
											OFFSET 0.000000 0.000000 0.000000
										}
									}
								}
								JOINT RThumb
								{
									OFFSET 0.000000 0.000000 0.000000
									CHANNELS 3 Zrotation Yrotation Xrotation
									End Site
									{
										OFFSET 0.000000 0.000000 0.000000
									}
								}
							}
						}
					}
				}
			}
		}
	}
}
MOTION
Frames: 10
Frame Time: 0.008333
2.695154 16.827656 8.522983 1.029247 -14.140330 102.204580 -2.643173 -8.033469 -5.645903 -13.204777 6.048701 -42.056206 1.649605 13.696177 34.989024 3.473762 2.485995 42.220034 3.929800 -12.066400 -35.967100 1.749920 6.443080 -3.652046 17.111051 3.871869 -44.039906 -3.914735 -17.283479 40.383164 -1.846931 -12.207657 42.568265 -1.847100 -8.540000 24.366700 13.444215 4.513004 -11.805547 -1.825589 7.232880 -3.839294 -23.282247 4.639357 11.272707 0.912452 3.603443 -20.480294 8.388738 3.241016 21.007487 7.312300 1.028600 17.225600 24.164941 -0.482270 0.279192 72.393265 -18.347847 -76.497441 4.712500 -14.427592 -0.444363 -0.770938 -0.454257 7.199762 14.283102 -6.153947 -1.489300 -7.125000 0.000000 0.000000 -8.693600 24.219300 4.410800 -28.052890 0.097229 5.040286 -41.931898 4.084561 -58.213398 -7.568529 16.375485 -1.718143 9.374057 3.853444 18.313630 -25.955427 -14.627656 13.300000 7.125000 0.000000 0.000000 -5.538700 -54.368900 1.278100 
2.638160 16.830579 8.512416 1.034075 -14.158489 102.001460 -2.413532 -7.968112 -5.646370 -13.703415 6.483278 -42.537373 2.031398 14.044676 36.183374 3.518370 2.137857 42.689578 3.456900 -11.400300 -33.642300 1.418290 6.321009 -3.620604 17.235399 4.153309 -44.683807 -4.520857 -17.831895 42.140890 -1.819920 -12.071083 42.486104 -2.000000 -8.866100 25.377300 12.441501 5.225195 -11.930095 -1.899487 8.139809 -3.790580 -22.413881 5.120641 11.643260 1.954496 3.546411 -19.863965 8.230774 2.959173 20.393601 6.514800 1.213800 16.288100 24.161841 -0.236477 0.128075 76.002458 -18.285039 -103.992215 6.373055 -19.760375 -1.550822 -0.674903 -1.338972 -3.689797 12.413402 0.968664 0.534800 -7.125000 0.000000 0.000000 -10.777100 32.199700 3.429600 -28.244543 0.073772 4.961913 -44.608745 5.038759 -77.055137 -5.456967 16.848221 -1.834496 4.157839 5.377263 11.149174 -11.936054 -11.272629 4.573800 7.125000 0.000000 0.000000 12.344900 -47.480200 -0.766600 
2.579929 16.835975 8.505559 1.000187 -14.219051 101.833132 -2.213953 -7.880748 -5.645477 -14.241523 6.936930 -43.033670 2.443422 14.391882 37.283200 3.479559 2.200475 43.189956 2.770900 -10.314500 -30.001500 1.131356 6.245257 -3.610716 17.260681 4.420005 -45.253283 -5.075224 -18.299284 43.658744 -1.824168 -12.046748 42.579898 -2.115500 -9.102700 26.117000 11.997227 5.447198 -11.894712 -1.898571 8.435406 -3.766650 -21.682627 5.326906 11.985652 2.971971 0.248134 -20.340544 7.222704 -2.371998 21.632804 5.444600 -0.711000 19.569100 24.308903 0.210311 -0.149000 76.265891 -15.102997 -99.731811 5.711788 -18.417254 -1.019441 -1.868415 -0.811981 -9.843504 29.149441 -4.169850 -2.141400 -7.125000 0.000000 0.000000 3.414800 25.833700 -1.588100 -28.492193 -0.068276 4.924407 -44.637686 4.930064 -76.449365 -5.769510 17.060410 -1.949039 4.126769 6.381829 9.230656 -11.666757 -13.857692 5.349200 7.125000 0.000000 0.000000 13.811100 -50.866800 -2.029600 
2.520686 16.845193 8.504885 1.025347 -14.160644 101.710412 -1.973531 -7.809759 -5.664240 -14.674256 7.304483 -43.531589 2.809521 14.705690 38.370155 3.498464 1.945398 43.524704 2.283500 -9.433100 -27.159800 0.874416 6.168436 -3.588065 17.336716 4.731254 -45.822607 -5.593190 -18.730512 45.068543 -1.794813 -12.094207 42.564995 -2.210800 -9.292000 26.713200 12.157975 5.374804 -11.738797 -1.870847 8.291376 -3.764209 -21.707975 5.256474 11.911491 3.277003 -0.183836 -20.248491 6.947289 -3.108284 21.799458 5.110100 -0.934200 19.933500 24.369926 0.249434 -0.149819 75.871804 -14.799934 -97.215800 5.459133 -17.837034 -0.876893 -1.971276 -0.768174 -9.560773 30.007214 -4.387156 -2.384000 -7.125000 0.000000 0.000000 4.112100 25.486300 -1.947300 -28.506743 -0.041134 4.955925 -44.442804 4.858919 -75.267797 -5.891547 16.992231 -1.888405 4.545113 5.843301 10.025721 -13.060499 -12.763671 5.610300 7.125000 0.000000 0.000000 11.518200 -49.637600 -1.332800 
2.462567 16.852725 8.500500 1.044149 -14.143106 101.566397 -1.766867 -7.737912 -5.676324 -15.111776 7.666166 -43.995375 3.201347 15.013170 39.414515 3.478522 1.917368 43.916870 1.772700 -8.375500 -23.860700 0.637298 6.093857 -3.566422 17.370122 4.996618 -46.351060 -6.087253 -19.121006 46.384527 -1.796081 -12.129774 42.653129 -2.297700 -9.460300 27.246200 12.059928 5.451024 -11.645225 -1.864185 8.360101 -3.754016 -21.460774 5.300208 11.955677 3.594538 -1.032473 -20.190604 6.640036 -4.492763 22.041077 4.718800 -1.369600 20.607000 24.406022 0.365281 -0.197718 76.062570 -14.000887 -97.990148 5.452552 -17.880045 -0.892685 -2.147248 -0.703019 -11.694045 32.308254 -5.704622 -3.620600 -7.125000 0.000000 0.000000 5.823400 23.593900 -3.020800 -28.591429 -0.056385 4.921981 -44.672510 4.872546 -76.221506 -5.856763 17.105197 -1.962414 4.110947 6.345212 8.804637 -11.791613 -13.687058 5.353900 7.125000 0.000000 0.000000 13.558900 -50.663100 -1.922700 
2.404449 16.861156 8.498252 1.074415 -14.107453 101.434831 -1.570008 -7.670957 -5.692742 -15.514513 7.997044 -44.442068 3.588586 15.302268 40.404881 3.448197 1.957498 44.278176 1.298500 -7.219600 -20.367500 0.430976 6.028512 -3.545948 17.388239 5.248225 -46.827155 -6.525672 -19.457780 47.529652 -1.812459 -12.185839 42.794529 -2.364400 -9.587000 27.649400 12.104328 5.449441 -11.525845 -1.850625 8.321457 -3.748897 -21.355248 5.289928 11.949846 3.755062 -1.563409 -20.150667 6.418997 -5.353789 22.222155 4.475000 -1.646500 21.074500 24.439545 0.425785 -0.216121 75.972589 -13.518889 -97.132970 5.356753 -17.649986 -0.843771 -2.271316 -0.674926 -12.541968 33.673225 -6.192220 -4.226600 -7.125000 0.000000 0.000000 6.846000 22.797800 -3.684100 -28.640604 -0.054871 4.916773 -44.729668 4.860479 -76.239150 -5.886792 17.143262 -1.972334 4.104735 6.419336 8.521915 -11.818963 -13.873092 5.430500 7.125000 0.000000 0.000000 13.610400 -50.908300 -2.013200 
2.346218 16.870374 8.498027 1.114258 -14.063323 101.309501 -1.388647 -7.610184 -5.710605 -15.886086 8.297739 -44.863045 3.966692 15.570221 41.329835 3.409647 2.069011 44.620524 0.878800 -5.976200 -16.715300 0.251910 5.969810 -3.524769 17.385455 5.489523 -47.248582 -6.910598 -19.747928 48.525794 -1.844214 -12.229100 42.973046 -2.403900 -9.661000 27.885700 12.216493 5.418638 -11.397675 -1.836245 8.241429 -3.747545 -21.347202 5.262371 11.925809 3.821124 -1.692668 -20.142487 6.316956 -5.578809 22.287096 4.373400 -1.715900 21.241400 24.467478 0.434104 -0.213441 75.863159 -13.390383 -96.840114 5.313873 -17.553796 -0.824309 -2.296549 -0.665628 -12.542546 33.844900 -6.274513 -4.324900 -7.125000 0.000000 0.000000 6.975900 22.665600 -3.776200 -28.653769 -0.047854 4.905228 -44.802533 4.864763 -76.375147 -5.879078 17.164247 -1.969694 4.102116 6.399674 8.427734 -11.861124 -13.822112 5.431600 7.125000 0.000000 0.000000 13.528400 -50.841500 -1.978200 
2.288099 16.880154 8.499601 1.154844 -14.012631 101.190181 -1.228386 -7.555323 -5.727141 -16.224006 8.573724 -45.255734 4.330127 15.813255 42.166083 3.361292 2.275435 44.949798 0.519900 -4.621100 -12.831000 0.105768 5.921209 -3.503250 17.360724 5.718975 -47.593254 -7.226212 -19.983058 49.322826 -1.891553 -12.284291 43.202300 -2.412500 -9.677000 27.937000 12.353640 5.380829 -11.283803 -1.824112 8.154243 -3.751642 -21.347578 5.246747 11.941748 3.668951 -1.662546 -20.424989 6.274939 -5.571617 22.239150 4.405600 -1.746300 21.703100 24.484452 0.410620 -0.214138 75.752828 -13.379639 -96.742830 5.302342 -17.519697 -0.817494 -2.285922 -0.664950 -12.312425 33.617596 -6.222634 -4.243500 -7.125000 0.000000 0.000000 6.810100 22.761200 -3.670200 -28.661991 -0.051288 4.879762 -44.886701 4.873742 -76.558920 -5.858084 17.184860 -1.963846 4.101195 6.369867 8.409770 -11.895650 -13.754518 5.422000 7.125000 0.000000 0.000000 13.451500 -50.750900 -1.936300 
2.230093 16.890159 8.502749 1.188138 -13.973773 101.083796 -1.094780 -7.511653 -5.747107 -16.540265 8.830383 -45.616783 4.671761 16.028497 42.897846 3.304681 2.578709 45.268231 0.242500 -3.168800 -8.748900 -0.009113 5.884412 -3.488150 17.294901 5.941617 -47.846159 -7.451421 -20.159091 49.904278 -1.981257 -12.230295 43.515011 -2.419000 -9.689100 27.975800 12.488433 5.342529 -11.160452 -1.810982 8.067341 -3.751850 -21.372103 5.217318 11.917940 3.672112 -1.632687 -20.435934 6.229362 -5.536461 22.260797 4.379600 -1.738000 21.763700 24.505159 0.397565 -0.204699 75.652267 -13.391157 -96.625501 5.301306 -17.502396 -0.813690 -2.273018 -0.665305 -12.198809 33.370718 -6.220395 -4.197400 -7.125000 0.000000 0.000000 6.622400 22.793900 -3.562700 -28.658209 -0.045040 4.866402 -44.973393 4.894785 -76.693828 -5.846289 17.212338 -1.959750 4.099050 6.337787 8.400236 -11.931817 -13.690913 5.412800 7.125000 0.000000 0.000000 13.376100 -50.662300 -1.895600 
2.172536 16.899939 8.507358 1.209040 -13.945496 100.990655 -0.990851 -7.478876 -5.768050 -16.831309 9.070419 -45.941580 4.984061 16.211720 43.501201 3.241963 2.987145 45.588724 0.064700 -1.641200 -4.515000 -0.089284 5.860863 -3.477643 17.188498 6.161076 -47.998081 -7.582045 -20.275365 50.253432 -2.103066 -12.095751 43.891525 -2.425800 -9.701800 28.016400 12.612672 5.307865 -11.043798 -1.799117 7.988863 -3.751764 -21.390556 5.191683 11.899025 3.664261 -1.602216 -20.444877 6.189840 -5.496047 22.285472 4.362300 -1.730200 21.824600 24.523398 0.385507 -0.195950 75.559076 -13.399415 -96.490398 5.308659 -17.494516 -0.811761 -2.259018 -0.666955 -12.228568 33.111237 -6.277270 -4.193900 -7.125000 0.000000 0.000000 6.418200 22.751200 -3.457800 -28.652768 -0.039724 4.855004 -45.062318 4.924217 -76.830567 -5.835244 17.243793 -1.956720 4.098515 6.310850 8.454844 -11.956217 -13.661267 5.407300 7.125000 0.000000 0.000000 13.335300 -50.613100 -1.873400 
